<svg width="50" height="50" viewBox="0 0 50 50" fill="none" xmlns="http://www.w3.org/2000/svg">
<path d="M10.416 14.5835H39.1452C39.7273 14.5835 40.303 14.7055 40.8351 14.9416C41.3671 15.1777 41.8439 15.5227 42.2345 15.9544C42.6251 16.386 42.9209 16.8947 43.1029 17.4476C43.2848 18.0006 43.3489 18.5855 43.291 19.1647L42.041 31.6647C41.9382 32.6929 41.457 33.6461 40.6909 34.3395C39.9248 35.0328 38.9284 35.4168 37.8952 35.4168H17.9993C17.0357 35.4172 16.1018 35.0836 15.3565 34.4728C14.6112 33.862 14.1007 33.0117 13.9118 32.0668L10.416 14.5835Z" stroke="#EA5B3B" stroke-width="4.16667" stroke-linejoin="round"/>
<path d="M10.416 14.5833L8.72852 7.82708C8.61566 7.37657 8.3555 6.97668 7.98936 6.69095C7.62323 6.40521 7.17212 6.25001 6.70768 6.25H4.16602M16.666 43.75H20.8327M33.3327 43.75H37.4993" stroke="#EA5B3B" stroke-width="4.16667" stroke-linecap="round" stroke-linejoin="round"/>
</svg>
