<svg width="50" height="50" viewBox="0 0 50 50" fill="none" xmlns="http://www.w3.org/2000/svg">
<path d="M4.16602 12.4998H45.8327M20.8327 22.9165V33.3332M29.166 22.9165V33.3332M8.33268 12.4998H41.666L38.3743 42.1248C38.2615 43.1444 37.7766 44.0865 37.0124 44.7707C36.2482 45.4549 35.2584 45.8332 34.2327 45.8332H15.766C14.7403 45.8332 13.7505 45.4549 12.9863 44.7707C12.2221 44.0865 11.7372 43.1444 11.6243 42.1248L8.33268 12.4998ZM15.3014 6.55609C15.6384 5.84144 16.1717 5.23733 16.8389 4.81424C17.5062 4.39114 18.2801 4.16649 19.0702 4.1665H30.9285C31.719 4.1661 32.4933 4.39056 33.161 4.81368C33.8287 5.2368 34.3622 5.84112 34.6993 6.55609L37.4993 12.4998H12.4993L15.3014 6.55609V6.55609Z" stroke="black" stroke-width="4.16667" stroke-linecap="round" stroke-linejoin="round"/>
</svg>
